<svg id="visual" viewBox="0 0 900 450" width="900" height="450" xmlns="http://www.w3.org/2000/svg" xmlns:xlink="http://www.w3.org/1999/xlink" version="1.1"><g stroke-width="1" stroke-linejoin="bevel"><path d="M470 243L403 214L381 265Z" fill="#00101c" stroke="#00101c"></path><path d="M403 214L333 282L381 265Z" fill="#277297" stroke="#277297"></path><path d="M381 265L479 335L470 243Z" fill="#00101c" stroke="#00101c"></path><path d="M396 355L479 335L381 265Z" fill="#297ea6" stroke="#297ea6"></path><path d="M470 243L460 155L403 214Z" fill="#297ea6" stroke="#297ea6"></path><path d="M403 214L275 162L333 282Z" fill="#0c2435" stroke="#0c2435"></path><path d="M333 282L396 355L381 265Z" fill="#00101c" stroke="#00101c"></path><path d="M333 282L309 320L396 355Z" fill="#1d4e6b" stroke="#1d4e6b"></path><path d="M460 155L390 98L403 214Z" fill="#081a28" stroke="#081a28"></path><path d="M333 282L237 246L309 320Z" fill="#15384f" stroke="#15384f"></path><path d="M390 98L275 162L403 214Z" fill="#297ea6" stroke="#297ea6"></path><path d="M592 165L508 98L460 155Z" fill="#00101c" stroke="#00101c"></path><path d="M460 155L508 98L390 98Z" fill="#205a7a" stroke="#205a7a"></path><path d="M592 165L460 155L470 243Z" fill="#00101c" stroke="#00101c"></path><path d="M275 162L237 246L333 282Z" fill="#19435d" stroke="#19435d"></path><path d="M624 238L592 165L470 243Z" fill="#246688" stroke="#246688"></path><path d="M479 335L624 238L470 243Z" fill="#0c2435" stroke="#0c2435"></path><path d="M404 0L305 89L390 98Z" fill="#297ea6" stroke="#297ea6"></path><path d="M390 98L305 89L275 162Z" fill="#297ea6" stroke="#297ea6"></path><path d="M275 162L166 196L237 246Z" fill="#297ea6" stroke="#297ea6"></path><path d="M309 320L364 450L396 355Z" fill="#277297" stroke="#277297"></path><path d="M396 355L502 450L479 335Z" fill="#277297" stroke="#277297"></path><path d="M479 335L638 367L624 238Z" fill="#297ea6" stroke="#297ea6"></path><path d="M272 450L364 450L309 320Z" fill="#15384f" stroke="#15384f"></path><path d="M364 450L502 450L396 355Z" fill="#00101c" stroke="#00101c"></path><path d="M502 450L562 450L479 335Z" fill="#1d4e6b" stroke="#1d4e6b"></path><path d="M562 450L638 367L479 335Z" fill="#15384f" stroke="#15384f"></path><path d="M202 382L272 450L309 320Z" fill="#00101c" stroke="#00101c"></path><path d="M465 0L404 0L390 98Z" fill="#081a28" stroke="#081a28"></path><path d="M465 0L390 98L508 98Z" fill="#112e42" stroke="#112e42"></path><path d="M608 0L465 0L508 98Z" fill="#1d4e6b" stroke="#1d4e6b"></path><path d="M237 246L202 382L309 320Z" fill="#1d4e6b" stroke="#1d4e6b"></path><path d="M723 176L617 76L592 165Z" fill="#297ea6" stroke="#297ea6"></path><path d="M592 165L617 76L508 98Z" fill="#15384f" stroke="#15384f"></path><path d="M723 176L592 165L624 238Z" fill="#297ea6" stroke="#297ea6"></path><path d="M305 89L197 123L275 162Z" fill="#081a28" stroke="#081a28"></path><path d="M237 246L123 252L202 382Z" fill="#1d4e6b" stroke="#1d4e6b"></path><path d="M211 0L197 123L305 89Z" fill="#246688" stroke="#246688"></path><path d="M197 123L166 196L275 162Z" fill="#277297" stroke="#277297"></path><path d="M404 0L278 0L305 89Z" fill="#112e42" stroke="#112e42"></path><path d="M638 367L725 269L624 238Z" fill="#081a28" stroke="#081a28"></path><path d="M91 182L123 252L166 196Z" fill="#277297" stroke="#277297"></path><path d="M166 196L123 252L237 246Z" fill="#0c2435" stroke="#0c2435"></path><path d="M562 450L661 450L638 367Z" fill="#112e42" stroke="#112e42"></path><path d="M638 367L708 376L725 269Z" fill="#112e42" stroke="#112e42"></path><path d="M725 269L723 176L624 238Z" fill="#246688" stroke="#246688"></path><path d="M661 450L708 376L638 367Z" fill="#205a7a" stroke="#205a7a"></path><path d="M617 76L608 0L508 98Z" fill="#277297" stroke="#277297"></path><path d="M667 0L608 0L617 76Z" fill="#1d4e6b" stroke="#1d4e6b"></path><path d="M123 252L133 371L202 382Z" fill="#297ea6" stroke="#297ea6"></path><path d="M202 382L172 450L272 450Z" fill="#112e42" stroke="#112e42"></path><path d="M197 123L135 120L166 196Z" fill="#246688" stroke="#246688"></path><path d="M211 0L135 120L197 123Z" fill="#297ea6" stroke="#297ea6"></path><path d="M133 371L172 450L202 382Z" fill="#1d4e6b" stroke="#1d4e6b"></path><path d="M278 0L211 0L305 89Z" fill="#246688" stroke="#246688"></path><path d="M0 56L91 182L135 120Z" fill="#0c2435" stroke="#0c2435"></path><path d="M135 120L91 182L166 196Z" fill="#112e42" stroke="#112e42"></path><path d="M0 342L107 450L133 371Z" fill="#081a28" stroke="#081a28"></path><path d="M725 269L763 171L723 176Z" fill="#277297" stroke="#277297"></path><path d="M723 176L716 61L617 76Z" fill="#15384f" stroke="#15384f"></path><path d="M777 295L763 171L725 269Z" fill="#112e42" stroke="#112e42"></path><path d="M780 116L716 61L723 176Z" fill="#0c2435" stroke="#0c2435"></path><path d="M782 450L764 341L708 376Z" fill="#0c2435" stroke="#0c2435"></path><path d="M708 376L764 341L725 269Z" fill="#00101c" stroke="#00101c"></path><path d="M716 61L667 0L617 76Z" fill="#0c2435" stroke="#0c2435"></path><path d="M764 341L777 295L725 269Z" fill="#297ea6" stroke="#297ea6"></path><path d="M0 342L133 371L123 252Z" fill="#15384f" stroke="#15384f"></path><path d="M133 371L107 450L172 450Z" fill="#00101c" stroke="#00101c"></path><path d="M763 171L780 116L723 176Z" fill="#19435d" stroke="#19435d"></path><path d="M716 61L786 0L667 0Z" fill="#297ea6" stroke="#297ea6"></path><path d="M900 172L780 116L763 171Z" fill="#1d4e6b" stroke="#1d4e6b"></path><path d="M900 327L900 248L777 295Z" fill="#00101c" stroke="#00101c"></path><path d="M777 295L900 248L763 171Z" fill="#081a28" stroke="#081a28"></path><path d="M661 450L782 450L708 376Z" fill="#277297" stroke="#277297"></path><path d="M211 0L87 0L135 120Z" fill="#081a28" stroke="#081a28"></path><path d="M0 206L0 234L91 182Z" fill="#205a7a" stroke="#205a7a"></path><path d="M91 182L0 234L123 252Z" fill="#0c2435" stroke="#0c2435"></path><path d="M0 56L0 206L91 182Z" fill="#112e42" stroke="#112e42"></path><path d="M0 234L0 342L123 252Z" fill="#205a7a" stroke="#205a7a"></path><path d="M900 0L786 0L780 116Z" fill="#15384f" stroke="#15384f"></path><path d="M780 116L786 0L716 61Z" fill="#00101c" stroke="#00101c"></path><path d="M0 342L0 450L107 450Z" fill="#0c2435" stroke="#0c2435"></path><path d="M87 0L0 56L135 120Z" fill="#297ea6" stroke="#297ea6"></path><path d="M900 327L777 295L764 341Z" fill="#00101c" stroke="#00101c"></path><path d="M782 450L900 327L764 341Z" fill="#19435d" stroke="#19435d"></path><path d="M900 248L900 172L763 171Z" fill="#1d4e6b" stroke="#1d4e6b"></path><path d="M900 172L900 126L780 116Z" fill="#19435d" stroke="#19435d"></path><path d="M87 0L0 0L0 56Z" fill="#15384f" stroke="#15384f"></path><path d="M782 450L900 450L900 327Z" fill="#15384f" stroke="#15384f"></path><path d="M900 126L900 0L780 116Z" fill="#112e42" stroke="#112e42"></path></g></svg>